<svg xmlns="http://www.w3.org/2000/svg" version="1.1" xmlns:xlink="http://www.w3.org/1999/xlink" xmlns:svgjs="http://svgjs.dev/svgjs" width="1000" height="623" viewBox="0 0 1000 623"><g transform="matrix(1,0,0,1,-0.6060606060606233,0.2522267206477409)"><svg viewBox="0 0 396 247" data-background-color="#ffffff" preserveAspectRatio="xMidYMid meet" height="623" width="1000" xmlns="http://www.w3.org/2000/svg" xmlns:xlink="http://www.w3.org/1999/xlink"><g id="tight-bounds" transform="matrix(1,0,0,1,0.2400000000000091,-0.09999999999999432)"><svg viewBox="0 0 395.52 247.2" height="247.2" width="395.52"><g><svg></svg></g><g><svg viewBox="0 0 395.52 247.2" height="247.2" width="395.52"><g transform="matrix(1,0,0,1,75.54432,54.623142374245475)"><svg viewBox="0 0 244.43135999999998 137.95371525150904" height="137.95371525150904" width="244.43135999999998"><g><svg viewBox="0 0 244.43135999999998 137.95371525150904" height="137.95371525150904" width="244.43135999999998"><g><svg viewBox="0 0 244.43135999999998 137.95371525150904" height="137.95371525150904" width="244.43135999999998"><g><svg viewBox="0 0 244.43135999999998 137.95371525150904" height="137.95371525150904" width="244.43135999999998"><g id="textblocktransform"><svg viewBox="0 0 244.43135999999998 137.95371525150904" height="137.95371525150904" width="244.43135999999998" id="textblock"><g><svg viewBox="0 0 244.43135999999998 137.95371525150904" height="137.95371525150904" width="244.43135999999998"><g transform="matrix(1,0,0,1,0,0)"><svg width="244.43135999999998" viewBox="1.9800000190734863 -26.899999618530273 48.529998779296875 27.389999389648438" height="137.95371525150904" data-palette-color="#ffffff"><g class="undefined-text-0" data-fill-palette-color="primary" id="text-0"><path d="M14.7 0.49L14.7 0.49Q10.77 0.49 7.91-1.21 5.05-2.91 3.52-5.8 1.98-8.69 1.98-12.28L1.98-12.28 1.98-13.28Q1.98-17.41 3.54-20.47 5.1-23.54 7.82-25.22 10.55-26.9 13.99-26.9L13.99-26.9Q17.8-26.9 20.31-25.26 22.83-23.61 24.07-20.69 25.32-17.77 25.32-13.94L25.32-13.94 25.32-11.33 4.88-11.33 4.88-15.7 19.34-15.7 19.34-16.16Q19.29-17.7 18.75-19.04 18.21-20.39 17.05-21.22 15.89-22.05 13.96-22.05L13.96-22.05Q12.04-22.05 10.72-20.96 9.4-19.87 8.72-17.91 8.03-15.94 8.03-13.28L8.03-13.28 8.03-12.28Q8.03-10.03 8.86-8.25 9.69-6.47 11.28-5.43 12.87-4.39 15.06-4.39L15.06-4.39Q17.19-4.39 18.84-5.22 20.48-6.05 21.68-7.62L21.68-7.62 24.85-4.44Q23.61-2.56 21.11-1.04 18.6 0.49 14.7 0.49ZM44.58-7.2L44.58-7.2Q44.58-8.03 44.15-8.72 43.72-9.4 42.5-9.99 41.28-10.57 38.91-11.06L38.91-11.06Q36.11-11.65 33.97-12.62 31.83-13.6 30.65-15.14 29.47-16.67 29.47-18.9L29.47-18.9Q29.47-21.04 30.7-22.86 31.93-24.68 34.24-25.79 36.55-26.9 39.69-26.9L39.69-26.9Q43.02-26.9 45.41-25.79 47.8-24.68 49.08-22.79 50.36-20.9 50.36-18.51L50.36-18.51 44.31-18.51Q44.31-20.07 43.15-21.25 41.99-22.44 39.67-22.44L39.67-22.44Q38.23-22.44 37.27-21.97 36.3-21.51 35.83-20.78 35.35-20.04 35.35-19.17L35.35-19.17Q35.35-18.31 35.83-17.68 36.3-17.04 37.46-16.55 38.62-16.06 40.72-15.63L40.72-15.63Q43.75-14.99 45.94-14.03 48.14-13.06 49.33-11.49 50.51-9.91 50.51-7.5L50.51-7.5Q50.51-5.18 49.18-3.37 47.85-1.56 45.44-0.54 43.04 0.49 39.77 0.49L39.77 0.49Q36.13 0.49 33.64-0.81 31.15-2.1 29.87-4.11 28.59-6.13 28.59-8.3L28.59-8.3 34.42-8.3Q34.52-6.74 35.31-5.79 36.11-4.83 37.31-4.41 38.52-3.98 39.84-3.98L39.84-3.98Q41.4-3.98 42.44-4.39 43.48-4.81 44.03-5.53 44.58-6.25 44.58-7.2Z" fill="#ffffff" data-fill-palette-color="primary"></path></g></svg></g></svg></g></svg></g></svg></g></svg></g></svg></g></svg></g><path d="M145.327 48.623L145.327 3.96 384.606 3.96 384.606 243.24 145.327 243.24 145.327 198.577 157.767 198.577 157.767 230.799 372.165 230.799 372.165 16.401 157.767 16.401 157.767 48.623Z" fill="#ffffff" stroke="transparent" data-fill-palette-color="primary"></path></svg></g><defs></defs></svg><rect width="395.52" height="247.2" fill="none" stroke="none" visibility="hidden"></rect></g></svg></g></svg>